<svg width="23" height="23" viewBox="0 0 23 23" fill="none" xmlns="http://www.w3.org/2000/svg">
<path d="M14.3591 3.46591L21.0532 10.1563C21.7954 10.898 21.7954 12.1007 21.0532 12.8424L14.3592 19.5327C13.9881 19.9036 13.3865 19.9036 13.0154 19.5327L12.3493 18.867C11.9782 18.4961 11.9782 17.8948 12.3493 17.5239L17.1389 12.7369H2.13723C1.61257 12.7369 1.18726 12.3116 1.18726 11.787V10.846C1.18726 10.3213 1.61257 9.89602 2.13723 9.89602H16.7729L12.3491 5.47474C11.9781 5.10385 11.9781 4.50253 12.3491 4.13164L13.0152 3.46591C13.3863 3.09502 13.988 3.09502 14.3591 3.46591Z" fill="black"/>
</svg>
