<svg width="99" height="32" viewBox="0 0 99 32" fill="none" xmlns="http://www.w3.org/2000/svg">
<path d="M78.8942 3.1049C78.8942 3.7049 78.4943 4.4049 78.1943 5.1049C77.8943 5.7049 77.5943 6.1049 77.0943 6.1049C76.4943 6.1049 75.6942 5.5049 74.9942 5.1049C69.7942 2.2049 62.8943 5.6049 62.0943 11.5049C61.0943 15.5049 62.8942 21.3049 67.8942 20.7049C70.6942 20.5049 73.3942 18.2049 73.9942 15.5049C73.9942 15.0049 72.5942 15.1049 71.4942 15.1049C69.0942 15.1049 67.8942 15.3049 68.7942 12.5049C69.5942 10.7049 72.6942 11.6049 74.2942 11.4049C75.7942 11.4049 77.3942 11.4049 78.7942 11.5049C79.3942 11.6049 79.4942 12.1049 79.4942 12.6049C79.2942 14.2049 78.9943 16.0049 78.6943 17.7049C78.3943 19.6049 78.0943 21.5049 77.6943 23.3049C77.4943 24.4049 76.3942 24.4049 75.3942 24.4049C74.8942 24.4049 74.2942 24.4049 73.8942 24.2049C73.1942 23.7049 73.8942 22.5049 73.8942 21.5049C74.0942 20.6049 74.1943 19.8049 73.5943 20.5049C71.5943 23.5049 67.6943 25.3049 64.1943 24.5049C53.9943 22.4049 55.5942 8.1049 62.2942 2.8049C66.7942 -1.0951 74.4942 -0.795098 78.8942 2.9049V3.1049Z" fill="white"/>
<path d="M4.69358 0.104937C4.99358 0.00493693 5.49358 0.00493846 5.99358 0.00493846C6.99358 0.00493846 8.19358 -0.095063 8.49358 0.604937C8.69358 3.40494 7.49358 6.60494 7.19358 9.30494C6.99358 10.0049 7.39358 10.5049 8.09358 10.5049C10.6936 10.5049 13.3936 10.5049 15.9936 10.5049C16.5936 10.5049 16.9936 10.2049 17.2936 9.70494C17.9936 7.10494 18.1936 4.30494 18.7936 1.70494C18.7936 1.30494 18.9936 0.904937 19.2936 0.704937C19.6936 0.204937 20.6936 0.304938 21.4936 0.304938C22.5936 0.304938 24.0936 0.304938 23.7936 1.80494C22.7936 9.10494 21.1936 16.4049 20.0936 23.6049C19.7936 25.2049 17.8936 24.6049 16.6936 24.7049C15.7936 24.7049 15.1936 24.7049 15.1936 23.8049C15.3936 20.9049 16.3936 18.1049 16.4936 15.2049C16.4936 15.0049 16.2936 14.8049 15.9936 14.8049C13.4936 14.8049 9.69358 14.8049 7.09358 14.8049C6.29358 14.8049 6.29358 15.5049 6.09358 16.2049C5.69358 18.4049 5.19358 20.8049 4.89358 23.0049C4.79358 25.2049 2.39358 24.7049 0.693576 24.6049C-0.506424 24.3049 0.193576 22.7049 0.293576 21.8049C0.793576 18.8049 1.49358 15.7049 1.89358 12.7049C2.59358 9.00494 3.19358 5.40494 3.89358 1.60494C3.99358 1.10494 4.19358 0.504937 4.59358 0.204937H4.69358V0.104937Z" fill="white"/>
<path d="M93.0929 7.00495C104.793 11.8049 95.8929 28.4049 84.9929 24.0049C80.4929 22.4049 79.2929 16.5049 81.3929 12.5049C83.2929 8.20495 88.2929 5.60495 92.9929 6.90495H93.0929V7.00495ZM85.8929 12.6049C82.3929 17.4049 86.1929 24.205 91.8929 20.205C94.2929 18.005 95.2929 13.3049 92.2929 11.1049C90.0929 9.80495 87.4929 10.7049 85.8929 12.5049V12.6049Z" fill="white"/>
<path d="M53.5949 6.98593C54.2949 6.78593 55.0949 6.88593 55.8949 6.88593C56.5949 6.88593 57.0949 6.88593 57.1949 7.38593C57.1949 7.68593 57.1949 7.98593 56.9949 8.48593C55.1949 12.1859 53.1949 15.5859 51.1949 19.1859C48.3949 24.7859 44.5949 31.2859 37.4949 31.5859C35.9949 31.6859 34.7949 31.5859 35.2949 29.8859C35.5949 28.1859 36.7949 28.0859 38.2949 27.9859C40.4949 27.6859 42.7949 26.5859 43.6949 24.5859C43.9949 23.1859 43.1949 21.7859 42.9949 20.3859C41.8949 16.4859 40.8949 12.3859 39.8949 8.58593C39.4949 6.98593 41.1949 7.08593 42.2949 7.18593C43.1949 7.18593 43.8949 7.48593 44.1949 8.38593C44.6949 10.0859 45.0949 11.8859 45.4949 13.5859C45.8949 15.3859 46.1949 17.2859 46.7949 19.0859C46.9949 19.5859 47.2949 19.2859 47.4949 18.8859C49.1949 15.4859 50.8949 11.7859 52.5949 8.38593C52.7949 7.98593 53.0949 7.48593 53.4949 7.28593L53.5949 6.98593Z" fill="white"/>
<path d="M37.2936 8.70499C39.2936 10.205 40.3936 14.605 38.7936 16.605C38.3936 16.905 37.8936 17.005 37.3936 17.005C34.3936 17.005 31.3936 17.005 28.3936 17.005C27.7936 17.005 27.1936 17.105 27.1936 17.805C27.5936 22.105 33.1936 22.205 36.1936 20.305C36.9936 19.805 38.1936 19.305 37.8936 20.805C37.4936 25.205 29.7936 25.705 26.7936 23.905C25.1936 23.005 23.6936 21.705 23.2936 19.905C20.6936 11.405 29.3936 3.70499 37.0936 8.60499H37.1936L37.2936 8.70499ZM28.8936 11.405C28.0936 12.005 27.1936 13.305 27.4936 14.305C27.6936 14.505 28.0936 14.305 28.3936 14.405C30.5936 14.405 32.9936 14.505 35.1936 14.405C36.0936 10.405 31.7936 9.60499 28.9936 11.405H28.8936Z" fill="white"/>
</svg>
